<svg t="1650873240730" class="icon" viewBox="0 0 1024 1024" version="1.1" xmlns="http://www.w3.org/2000/svg" p-id="7323" width="16" height="16"><path d="M256 459.968v286.976l2.56 3.648 237.76 132.096v-281.536L256 459.968z m10.496-30.976l245.824 144.448 245.216-144.416-243.392-135.232h-4.288l-243.36 135.2zM768 460l-239.68 141.12v281.216l237.12-131.744 2.56-3.648v-286.944zM224 743.68V416l272-151.104V94.816h32v170.08L800 416v327.68l166.272 116.544-18.368 26.208-159.648-111.904L512 928l-276.256-153.472-159.68 111.904-18.336-26.24L224 743.68z" p-id="7324" fill="#e6e6e6"></path></svg>
