<?xml version="1.0" standalone="no"?><!DOCTYPE svg PUBLIC "-//W3C//DTD SVG 1.1//EN" "http://www.w3.org/Graphics/SVG/1.1/DTD/svg11.dtd"><svg t="1651741966023" class="icon" viewBox="0 0 1024 1024" version="1.1" xmlns="http://www.w3.org/2000/svg" p-id="7474" xmlns:xlink="http://www.w3.org/1999/xlink" width="16" height="16"><defs><style type="text/css">@font-face { font-family: feedback-iconfont; src: url("//at.alicdn.com/t/font_1031158_u69w8yhxdu.woff2?t=1630033759944") format("woff2"), url("//at.alicdn.com/t/font_1031158_u69w8yhxdu.woff?t=1630033759944") format("woff"), url("//at.alicdn.com/t/font_1031158_u69w8yhxdu.ttf?t=1630033759944") format("truetype"); }
</style></defs><path d="M507.904 52.224q95.232 0 179.2 36.352t145.92 98.304 98.304 145.408 36.352 178.688-36.352 179.2-98.304 145.92-145.92 98.304-179.2 36.352-178.688-36.352-145.408-98.304-98.304-145.92-36.352-179.2 36.352-178.688 98.304-145.408 145.408-98.304 178.688-36.352zM736.256 573.44q30.72 0 55.296-15.872t24.576-47.616q0-30.72-24.576-45.568t-55.296-14.848l-452.608 0q-30.72 0-56.32 14.848t-25.6 45.568q0 31.744 25.6 47.616t56.32 15.872l452.608 0z" p-id="7475"></path></svg>