<?xml version="1.0" standalone="no"?><!DOCTYPE svg PUBLIC "-//W3C//DTD SVG 1.1//EN" "http://www.w3.org/Graphics/SVG/1.1/DTD/svg11.dtd"><svg t="1651820161672" class="icon" viewBox="0 0 1024 1024" version="1.1" xmlns="http://www.w3.org/2000/svg" p-id="2822" xmlns:xlink="http://www.w3.org/1999/xlink" width="16" height="16"><defs><style type="text/css">@font-face { font-family: feedback-iconfont; src: url("//at.alicdn.com/t/font_1031158_u69w8yhxdu.woff2?t=1630033759944") format("woff2"), url("//at.alicdn.com/t/font_1031158_u69w8yhxdu.woff?t=1630033759944") format("woff"), url("//at.alicdn.com/t/font_1031158_u69w8yhxdu.ttf?t=1630033759944") format("truetype"); }
</style></defs><path d="M258.048 899.072v-527.36q0-76.8-0.512-141.312t-0.512-100.353q0-24.576 11.776-40.96t29.696-22.016 39.424 0 39.936 24.064q37.888 38.912 81.92 81.408t90.624 85.504 94.209 86.016 91.648 82.944q19.456 17.408 29.184 43.008t8.704 53.248-11.776 54.272-32.256 45.056q-39.936 34.817-79.36 70.144t-80.897 72.704-87.04 78.335-96.768 87.04q-22.528 20.48-45.567 27.136t-41.472 2.048-29.696-20.48-11.264-40.448z" fill="#0f76f8" p-id="2823"></path></svg>